<svg xmlns="http://www.w3.org/2000/svg" width="40" height="27" viewBox="0 0 40 27"><title>Shape</title><path d="M0 24.61V2.39c0-.02.04-.27.12-.73l13.07 11.18L.15 25.38c-.1-.36-.15-.62-.15-.77zM1.74.12c.18-.08.39-.12.65-.12h35.22c.23 0 .46.04.69.12L25.19 11.34l-1.74 1.39-3.43 2.81-3.43-2.81-1.74-1.39L1.74.12zm.03 26.77l13.16-12.62 5.09 4.13 5.09-4.13 13.15 12.62c-.2.07-.42.11-.65.11H2.39c-.2 0-.41-.04-.62-.11zm25.08-14.05L39.88 1.66c.08.23.12.47.12.73v22.22c0 .23-.04.49-.12.77L26.85 12.84z" fill-rule="evenodd"/></svg>