<svg xmlns="http://www.w3.org/2000/svg" width="40" height="31" viewBox="0 0 40 31"><title>Shape</title><path d="M29.2.03c.52 1.18.86 3.14.36 4.58 2.05 1.75 2.76 6.02 1.77 9.51 2.93.22 6.42-.11 8.67.79-2.11-.27-4.98-.8-7.7-.62-.51.04-1.28-.02-1.24.71 3.15.24 6.27.51 8.85 1.32-2.56-.42-5.67-1.06-8.85-1.15-1.31 2.6-3.96 3.87-7.61 4.14.39.85 1.15 1.18 1.33 2.55.27 2.06-.43 5.06.26 6.43.34.65.88.67 1.24 1.23-.89 1.06-3.11-.12-3.36-1.23-.43-1.91.66-4.87-.53-6.16.08 2.08-.49 5 .09 6.86.23.74.89 1.02.71 1.68-4.16.42-2.42-5.38-3.1-8.81-.63.05-.35.94-.36 1.32-.01 3.35.69 7.93-2.92 7.49-.1-.71.49-.95.71-1.59.66-1.88-.12-4.68.18-6.95-1.38 1.03.14 4.66-.71 6.51-.49 1.07-2.07 1.53-3.27 1.06.15-.8.98-.67 1.32-1.41.49-1.03.01-2.52.18-4.05-2.54.51-4.52-.07-5.49-1.67-.43-.72-.54-1.57-1.06-2.2-.52-.64-1.35-.73-1.59-1.59 3.15-.76 3.27 3.25 6.11 3.35.86.03 1.32-.25 2.12-.44.22-1.01.71-1.77 1.42-2.29-3.53-.49-6.44-1.58-7.79-4.23-3.21.16-6.14.59-8.85 1.23 2.46-.89 5.5-1.21 8.76-1.32-.19-1.15-1.88-.83-2.92-.79-1.94.09-4.39.33-5.93.62 2.24-.8 5.38-.7 8.41-.71-.93-2.9-.61-7.52 1.41-9.24-.57-1.44-.39-3.8.36-4.93 2.26.1 3.62 1.09 5.04 2.03 1.76-.5 3.61-.75 6.02-.62 1.01.06 2.07.51 2.83.44.75-.07 1.57-.91 2.3-1.23.95-.42 1.75-.58 2.83-.62z" fill="#000" fill-rule="evenodd"/></svg>