<svg xmlns="http://www.w3.org/2000/svg" width="100" height="100" viewBox="0 0 100 100"><path d="M20.39 84.28c6.927-9.986 18.438-16.546 31.513-16.546 11.903 0 22.508 5.438 29.545 13.945C89.51 73.544 94.5 62.36 94.5 50c0-24.852-20.146-45-45-45-24.852 0-45 20.148-45 45.002 0 13.74 6.178 26.026 15.89 34.277zM73.554 63.5c-.654 1.46-1.824 1.755-3.195 1.122-5.994-2.772-12.664-4.325-19.697-4.325-7.22 0-14.055 1.637-20.17 4.546-.656.313-2.096.45-2.744-1.415-.65-1.867.375-2.923.964-3.195 6.673-3.12 14.1-4.893 21.95-4.893 7.71 0 15.133 1.466 21.594 4.728 1.018.516 1.948 1.973 1.295 3.432zm3.83-11.495c-.467.652-1.192 1.104-2.054 1.104-.237 0-.454-.08-.672-.14-7.343-3.245-15.452-5.067-23.995-5.067-8.48 0-16.534 1.794-23.835 4.993-.264.092-.536.173-.832.173-.878 0-1.616-.47-2.08-1.143l-.485-1.46c.01-.756.364-1.41.893-1.877 8.044-3.61 16.95-5.644 26.342-5.644 9.387 0 18.288 2.03 26.33 5.64.54.46.885 1.135.9 1.892l-.51 1.527zM21.052 33.83c9.154-3.693 19.136-5.757 29.61-5.757 10.378 0 20.272 2.022 29.354 5.65 1.23.628 2.092 1.862 2.092 3.336 0 2.086-1.695 3.78-3.78 3.78-.293 0-.57-.067-.84-.13-8.292-3.344-17.34-5.204-26.826-5.204-9.494 0-18.55 1.862-26.843 5.21-.27.06-.535.122-.82.122-2.086 0-3.78-1.693-3.78-3.78 0-1.376.74-2.568 1.832-3.23zm30.85 48.777c-7.622 0-14.372 3.673-18.68 9.31C38.28 93.883 43.754 95 49.5 95c7.123 0 13.83-1.698 19.817-4.645-4.305-4.75-10.51-7.748-17.415-7.748z"/></svg>