<svg xmlns="http://www.w3.org/2000/svg" width="41" height="40" viewBox="0 0 41 40"><title>Shape</title><path d="M7.56 35.24c3.08-4.44 8.2-7.36 14.01-7.36 5.29 0 10 2.42 13.13 6.2 3.58-3.62 5.8-8.59 5.8-14.08 0-11.05-8.95-20-20-20S.5 8.95.5 20c0 6.11 2.75 11.57 7.06 15.24zM31.19 26c-.29.65-.81.78-1.42.5-2.66-1.23-5.63-1.92-8.75-1.92-3.21 0-6.25.72-8.97 2.02-.29.14-.93.2-1.22-.63-.29-.83.17-1.3.43-1.42 2.97-1.39 6.27-2.18 9.76-2.18 3.42 0 6.72.65 9.59 2.1.46.23.87.88.58 1.53zm1.7-5.11c-.2.29-.53.49-.91.49-.11 0-.2-.03-.3-.06-3.26-1.44-6.87-2.25-10.66-2.25-3.77 0-7.35.79-10.6 2.22-.11.04-.23.07-.37.07-.39 0-.71-.21-.92-.5l-.22-.65c.01-.34.17-.63.4-.84 3.58-1.6 7.53-2.51 11.71-2.51 4.17 0 8.13.91 11.7 2.51.24.2.39.5.4.84l-.23.68zM7.86 12.81c4.06-1.64 8.5-2.56 13.16-2.56 4.61 0 9.01.9 13.04 2.52.55.27.93.82.93 1.48 0 .93-.75 1.68-1.68 1.68-.13 0-.25-.03-.37-.06-3.69-1.49-7.71-2.31-11.92-2.31-4.22 0-8.25.82-11.93 2.31-.12.03-.24.06-.37.06-.93 0-1.68-.76-1.68-1.68 0-.61.33-1.14.82-1.44zm13.71 21.68c-3.39 0-6.39 1.63-8.3 4.14 2.24.87 4.68 1.37 7.23 1.37 3.17 0 6.15-.75 8.81-2.06-1.92-2.12-4.67-3.45-7.74-3.45z" fill="#000" fill-rule="evenodd"/></svg>