<svg xmlns="http://www.w3.org/2000/svg" width="40" height="28" viewBox="0 0 40 28"><title>Shape</title><path d="M35.47 12.25c2.24-.18 3.77-1.2 4.35-2.59-.81.5-3.32 1.04-4.71.52-.07-.32-.15-.63-.22-.91-1.06-3.89-4.68-7.02-8.48-6.64.31-.13.62-.24.93-.34.42-.15 2.87-.55 2.48-1.42-.32-.76-3.32.58-3.88.75.74-.28 1.97-.76 2.11-1.62-1.15.16-2.27.7-3.13 1.48.31-.33.55-.74.6-1.18-3.05 1.94-4.82 5.86-6.26 9.66-1.13-1.09-2.13-1.95-3.03-2.43-2.52-1.35-5.53-2.76-10.26-4.52-.15 1.57.77 3.65 3.42 5.03-.58-.08-1.63.09-2.46.3.34 1.79 1.45 3.27 4.48 3.98-1.39.09-2.1.4-2.75 1.08.63 1.25 2.17 2.72 4.93 2.42-3.07 1.32-1.25 3.77 1.24 3.4-4.26 4.4-10.97 4.08-14.83.4 10.07 13.72 31.96 8.12 35.23-5.1 2.44.02 3.88-.85 4.77-1.81-1.41.24-3.45 0-4.53-.45v-.01z" fill="#000" fill-rule="evenodd"/></svg>