<svg xmlns="http://www.w3.org/2000/svg" width="100" height="100" viewBox="0 0 100 100"><path d="M84.803 46.564c5.055-.417 8.483-2.715 9.803-5.833-1.824 1.12-7.484 2.344-10.61 1.18-.153-.733-.324-1.43-.492-2.06-2.382-8.747-10.537-15.793-19.082-14.94.69-.28 1.392-.54 2.092-.774.94-.337 6.46-1.235 5.59-3.183-.733-1.712-7.475 1.296-8.744 1.69 1.675-.63 4.447-1.715 4.743-3.64-2.567.35-5.087 1.565-7.034 3.33.7-.757 1.233-1.68 1.346-2.672-6.848 4.376-10.848 13.196-14.085 21.75-2.54-2.462-4.794-4.402-6.815-5.48-5.67-3.04-12.45-6.212-23.09-10.163-.328 3.52 1.74 8.203 7.7 11.316-1.292-.173-3.653.213-5.54.665.768 4.034 3.28 7.357 10.078 8.964-3.107.205-4.713.91-6.168 2.436 1.415 2.805 4.868 6.107 11.08 5.43-6.906 2.976-2.816 8.49 2.804 7.666-9.587 9.903-24.7 9.176-33.38.894 22.66 30.88 71.92 18.262 79.26-11.48 5.5.046 8.734-1.906 10.74-4.058-3.17.538-7.76-.018-10.198-1.032z"/></svg>